<svg
      xmlns="http://www.w3.org/2000/svg"
      width="1em"
      height="1em"
      viewBox="0 0 24 24"
      fill="none"
      stroke="currentColor"
      strokeWidth="2"
      strokeLinecap="round"
      strokeLinejoin="round"
    >
      <path d="M2 22v-2a2 2 0 0 1 2-2h16a2 2 0 0 1 2 2v2" />
      <path d="M5 18a2 2 0 0 0-2-2V7a2 2 0 0 1 2-2h14a2 2 0 0 1 2 2v9a2 2 0 0 0-2 2h-4" />
      <path d="M12 18V5" />
      <path d="M10 12h10" />
      <path d="M10 7h10" />
      <path d="M10 17h10" />
    </svg>